<?xml version="1.0" encoding="UTF-8"?>
<svg width="123px" height="123px" viewBox="0 0 123 123" version="1.1" xmlns="http://www.w3.org/2000/svg" xmlns:xlink="http://www.w3.org/1999/xlink">
    <!-- Generator: Sketch 52.6 (67491) - http://www.bohemiancoding.com/sketch -->
    <title>Untitled 3</title>
    <desc>Created with Sketch.</desc>
    <defs>
        <path d="M93.6740882,27.4569162 C101.910128,35.5721711 107,46.779338 107,59.1632169 C107,71.5470958 101.910128,82.7542628 93.6740882,90.8695176 C85.4380487,98.9847725 74.0640782,104 61.504118,104 C55.7471264,104 50.2454521,102.945017 45.1720518,101.029817 L52.0656168,93.5313212 C55.0717712,94.3347315 58.2344104,94.7567247 61.504118,94.7567247 C71.4779618,94.7567247 80.5128971,90.7721346 87.0440764,84.3286222 C93.5834917,77.8851099 97.6191511,68.9907906 97.6191511,59.1632169 C97.6191511,49.3356433 93.5752557,40.4332087 87.0440764,33.9978116 C85.6768938,32.6506793 84.2026428,31.4171606 82.6377953,30.2972554 L87.9335686,22.6608006 C89.9843425,24.1053159 91.9033397,25.7040212 93.6740882,27.4569162 Z M29.3259118,90.8695176 C21.0898724,82.7542628 16,71.5470958 16,59.1632169 C16,46.779338 21.0898724,35.5721711 29.3259118,27.4569162 C35.7994389,21.0783259 44.2084352,16.6149357 53.6139922,15 L47.5605032,26.3207805 C43.1871663,28.1223671 39.2503394,30.7517097 35.9559236,33.9978116 C29.4165083,40.441324 25.3726129,49.3356433 25.3726129,59.1632169 C25.3726129,68.7554482 29.2188433,77.4550014 35.4782333,83.8579374 L30.9731197,92.4114161 C30.4130691,91.9082703 29.8612544,91.3970092 29.3259118,90.8695176 Z" id="path-1"></path>
        <filter x="-7.7%" y="-5.6%" width="115.4%" height="115.7%" filterUnits="objectBoundingBox" id="filter-2">
            <feOffset dx="0" dy="2" in="SourceAlpha" result="shadowOffsetOuter1"></feOffset>
            <feGaussianBlur stdDeviation="2" in="shadowOffsetOuter1" result="shadowBlurOuter1"></feGaussianBlur>
            <feColorMatrix values="0 0 0 0 0   0 0 0 0 0   0 0 0 0 0  0 0 0 0.5 0" type="matrix" in="shadowBlurOuter1"></feColorMatrix>
        </filter>
        <polygon id="path-3" points="88 12 61.8466871 12.3499349 36.6529796 60.2096354 53.8120251 60.3886719 27 112 87.4795361 45.8216146 64.8881482 45.8216146"></polygon>
        <filter x="-11.5%" y="-5.0%" width="123.0%" height="114.0%" filterUnits="objectBoundingBox" id="filter-4">
            <feOffset dx="0" dy="2" in="SourceAlpha" result="shadowOffsetOuter1"></feOffset>
            <feGaussianBlur stdDeviation="2" in="shadowOffsetOuter1" result="shadowBlurOuter1"></feGaussianBlur>
            <feColorMatrix values="0 0 0 0 0   0 0 0 0 0   0 0 0 0 0  0 0 0 0.5 0" type="matrix" in="shadowBlurOuter1"></feColorMatrix>
        </filter>
    </defs>
    <g id="Page-1" stroke="none" stroke-width="1" fill="none" fill-rule="evenodd">
        <g id="energy">
            <rect id="Rectangle" fill="#FF9900" x="0" y="0" width="123" height="123"></rect>
            <g id="Shape" fill-rule="nonzero">
                <use fill="black" fill-opacity="1" filter="url(#filter-2)" xlink:href="#path-1"></use>
                <use fill="#FFFFFF" xlink:href="#path-1"></use>
            </g>
            <g id="Path">
                <use fill="black" fill-opacity="1" filter="url(#filter-4)" xlink:href="#path-3"></use>
                <use fill="#FFFFFF" fill-rule="evenodd" xlink:href="#path-3"></use>
            </g>
        </g>
    </g>
</svg>